<?xml version="1.0" encoding="utf-8"?>
<!-- Generator: Adobe Illustrator 22.0.1, SVG Export Plug-In . SVG Version: 6.00 Build 0)  -->
<svg version="1.1" id="Layer_1" xmlns="http://www.w3.org/2000/svg" xmlns:xlink="http://www.w3.org/1999/xlink" x="0px" y="0px"
	 width="35.8px" height="36.3px" viewBox="0 0 35.8 36.3" style="enable-background:new 0 0 35.8 36.3;" xml:space="preserve">
<style type="text/css">
	.st0{fill:none;stroke:#000000;stroke-width:0.75;stroke-linecap:round;stroke-linejoin:round;stroke-miterlimit:10;}
	.st1{fill:#FFFFFF;}
	.st2{fill:#FFDA30;}
</style>
<g>
	<path class="st0" d="M6.9,15.4l-5.5-3.3c-0.7-0.4-1.1-1.1-1.1-1.9V5c0-1.2,1-2.2,2.2-2.2h4.3"/>
	<path class="st0" d="M28.8,15.4l5.5-3.3c0.7-0.4,1.1-1.1,1.1-1.9V5c0-1.2-1-2.2-2.2-2.2h-4.3"/>
	<polyline class="st1" points="20.7,25 20.7,30.3 28.8,33.3 28.8,35.9 6.9,35.9 6.9,33 15,30.3 15,25 	"/>
	<polyline class="st0" points="20.7,25 20.7,30.3 28.8,33.3 28.8,35.9 6.9,35.9 6.9,33 15,30.3 15,25 	"/>
	<path class="st2" d="M6.9,2.8v13.1c0,0.6,0.3,1.2,0.7,1.7l6.7,6.7c0.5,0.5,1.1,0.7,1.7,0.7h3.7c0.6,0,1.2-0.3,1.7-0.7l6.7-6.7
		c0.5-0.4,0.7-1.1,0.7-1.7v-13c0-1.3-1.1-2.4-2.4-2.4H9.3C8,0.4,6.9,1.4,6.9,2.8"/>
	<path class="st0" d="M6.9,2.8v13.1c0,0.6,0.3,1.2,0.7,1.7l6.7,6.7c0.5,0.5,1.1,0.7,1.7,0.7h3.7c0.6,0,1.2-0.3,1.7-0.7l6.7-6.7
		c0.5-0.4,0.7-1.1,0.7-1.7v-13c0-1.3-1.1-2.4-2.4-2.4H9.3C8,0.4,6.9,1.4,6.9,2.8z"/>
	<line class="st0" x1="13.8" y1="7.1" x2="22.8" y2="7.1"/>
	<line class="st0" x1="15.8" y1="11.7" x2="20.5" y2="11.7"/>
</g>
</svg>
