<?xml version="1.0" encoding="utf-8"?>
<!-- Generator: Adobe Illustrator 25.4.1, SVG Export Plug-In . SVG Version: 6.00 Build 0)  -->
<svg version="1.1" id="Layer_1" xmlns="http://www.w3.org/2000/svg" xmlns:xlink="http://www.w3.org/1999/xlink" x="0px" y="0px"
	 width="436.4px" height="59px" viewBox="0 0 436.4 59" style="enable-background:new 0 0 436.4 59;" xml:space="preserve">
<style type="text/css">
	.st0{fill:#FFFFFF;}
	.st1{fill:#010101;}
	.st2{fill:#FDD931;}
</style>
<g>
	<g>
		<path class="st0" d="M242.6,24.8h-5.9v-2.1H251v2.1h-5.9v15.1h-2.4V24.8z"/>
		<path class="st0" d="M261.5,28c1,0.9,1.4,2.2,1.4,4v7.9h-2.2v-1.7c-0.4,0.6-1,1.1-1.7,1.4s-1.6,0.5-2.6,0.5
			c-1.5,0-2.6-0.4-3.5-1.1c-0.9-0.7-1.3-1.6-1.3-2.8s0.4-2.1,1.3-2.8c0.8-0.7,2.2-1,4-1h3.7v-0.5c0-1-0.3-1.8-0.9-2.3
			c-0.6-0.5-1.5-0.8-2.6-0.8c-0.8,0-1.5,0.1-2.3,0.4s-1.4,0.6-1.9,1l-1-1.8c0.7-0.5,1.5-1,2.4-1.2s1.9-0.4,3-0.4
			C259.1,26.7,260.5,27.2,261.5,28z M259.1,37.6c0.7-0.4,1.1-1,1.4-1.7v-1.8h-3.6c-2,0-3,0.7-3,2c0,0.7,0.3,1.2,0.8,1.5
			s1.2,0.6,2.1,0.6C257.7,38.2,258.5,38,259.1,37.6z"/>
		<path class="st0" d="M267.3,21.6h2.4v18.2h-2.4V21.6z"/>
		<path class="st0" d="M285.9,34.1h-10.6c0.1,1.1,0.7,2.1,1.5,2.8c0.9,0.7,1.9,1,3.2,1c1.6,0,2.8-0.5,3.8-1.6l1.3,1.5
			c-0.6,0.7-1.3,1.2-2.2,1.6c-0.9,0.4-1.9,0.5-2.9,0.5c-1.4,0-2.6-0.3-3.7-0.8c-1.1-0.6-1.9-1.4-2.5-2.4c-0.6-1-0.9-2.2-0.9-3.4
			c0-1.3,0.3-2.4,0.8-3.4c0.6-1,1.3-1.8,2.3-2.4s2.1-0.8,3.4-0.8c1.2,0,2.4,0.3,3.3,0.8s1.7,1.4,2.3,2.4c0.5,1,0.8,2.2,0.8,3.5
			C285.9,33.6,285.9,33.8,285.9,34.1z M276.6,29.7c-0.8,0.7-1.2,1.6-1.3,2.7h8.4c-0.1-1.1-0.6-2-1.3-2.7s-1.7-1-2.8-1
			S277.4,29,276.6,29.7z"/>
		<path class="st0" d="M300.1,28.1c1,1,1.5,2.4,1.5,4.2v7.5h-2.4v-7.2c0-1.3-0.3-2.2-0.9-2.8c-0.6-0.6-1.5-1-2.6-1
			c-1.3,0-2.3,0.4-3,1.1s-1.1,1.8-1.1,3.2v6.7h-2.4v-13h2.3v2c0.5-0.7,1.1-1.2,1.9-1.5c0.8-0.4,1.7-0.5,2.8-0.5
			C297.8,26.7,299.1,27.2,300.1,28.1z"/>
		<path class="st0" d="M313.2,39.1c-0.3,0.3-0.8,0.5-1.3,0.7s-1,0.2-1.6,0.2c-1.3,0-2.3-0.4-3-1.1c-0.7-0.7-1.1-1.7-1.1-3v-7.1H304
			v-1.9h2.2V24h2.4v2.8h3.7v1.9h-3.7v7.1c0,0.7,0.2,1.2,0.5,1.6c0.4,0.4,0.9,0.6,1.5,0.6c0.7,0,1.3-0.2,1.8-0.6L313.2,39.1z"/>
		<path class="st0" d="M324.3,39.4c-1.2-0.4-2.1-0.9-2.8-1.6l0.9-1.9c0.7,0.6,1.5,1.1,2.5,1.4S327,38,328,38c1.4,0,2.5-0.2,3.2-0.7
			c0.7-0.5,1.1-1.1,1.1-1.9c0-0.6-0.2-1.1-0.6-1.4c-0.4-0.4-0.9-0.7-1.4-0.8c-0.6-0.2-1.4-0.4-2.4-0.7c-1.3-0.3-2.3-0.6-3.1-0.9
			c-0.8-0.3-1.5-0.8-2-1.4c-0.6-0.6-0.8-1.5-0.8-2.6c0-0.9,0.2-1.7,0.7-2.5c0.5-0.7,1.2-1.3,2.2-1.8c1-0.4,2.2-0.7,3.7-0.7
			c1,0,2,0.1,3,0.4c1,0.3,1.8,0.6,2.5,1.1l-0.8,2c-0.7-0.5-1.5-0.8-2.3-1c-0.8-0.2-1.6-0.4-2.4-0.4c-1.4,0-2.4,0.3-3.1,0.8
			s-1,1.2-1,2c0,0.6,0.2,1.1,0.6,1.4c0.4,0.4,0.9,0.7,1.5,0.9c0.6,0.2,1.4,0.4,2.4,0.7c1.3,0.3,2.3,0.6,3.1,0.9
			c0.8,0.3,1.5,0.8,2,1.4s0.8,1.5,0.8,2.6c0,0.9-0.2,1.7-0.7,2.5c-0.5,0.7-1.2,1.3-2.2,1.8c-1,0.4-2.2,0.7-3.7,0.7
			C326.8,40,325.5,39.8,324.3,39.4z"/>
		<path class="st0" d="M340,39.1c-1-0.6-1.8-1.4-2.4-2.4c-0.6-1-0.9-2.1-0.9-3.4s0.3-2.4,0.9-3.4c0.6-1,1.4-1.8,2.4-2.4
			c1-0.6,2.2-0.8,3.5-0.8s2.5,0.3,3.5,0.8c1,0.6,1.8,1.4,2.4,2.4c0.6,1,0.9,2.1,0.9,3.4s-0.3,2.4-0.9,3.4c-0.6,1-1.4,1.8-2.4,2.4
			c-1,0.6-2.2,0.9-3.5,0.9S341.1,39.7,340,39.1z M345.8,37.4c0.7-0.4,1.2-0.9,1.6-1.6s0.6-1.5,0.6-2.4s-0.2-1.7-0.6-2.4
			c-0.4-0.7-0.9-1.2-1.6-1.6c-0.7-0.4-1.4-0.6-2.2-0.6c-0.8,0-1.6,0.2-2.2,0.6c-0.7,0.4-1.2,0.9-1.6,1.6c-0.4,0.7-0.6,1.5-0.6,2.4
			s0.2,1.7,0.6,2.4c0.4,0.7,0.9,1.2,1.6,1.6c0.7,0.4,1.4,0.6,2.2,0.6C344.4,37.9,345.1,37.7,345.8,37.4z"/>
		<path class="st0" d="M353.5,21.6h2.4v18.2h-2.4V21.6z"/>
		<path class="st0" d="M372.5,26.8v13h-2.2v-2c-0.5,0.7-1.1,1.2-1.9,1.6s-1.6,0.6-2.5,0.6c-1.7,0-3.1-0.5-4.1-1.4
			c-1-1-1.5-2.4-1.5-4.2v-7.5h2.4v7.2c0,1.3,0.3,2.2,0.9,2.9c0.6,0.6,1.5,1,2.6,1c1.2,0,2.2-0.4,2.9-1.1c0.7-0.8,1.1-1.8,1.1-3.2
			v-6.7H372.5z"/>
		<path class="st0" d="M384.3,39.1c-0.3,0.3-0.8,0.5-1.3,0.7s-1,0.2-1.6,0.2c-1.3,0-2.3-0.4-3-1.1c-0.7-0.7-1.1-1.7-1.1-3v-7.1h-2.2
			v-1.9h2.2V24h2.4v2.8h3.7v1.9h-3.7v7.1c0,0.7,0.2,1.2,0.5,1.6c0.4,0.4,0.9,0.6,1.5,0.6c0.7,0,1.3-0.2,1.8-0.6L384.3,39.1z"/>
		<path class="st0" d="M387.2,23.9c-0.3-0.3-0.5-0.7-0.5-1.1s0.2-0.8,0.5-1.1c0.3-0.3,0.7-0.5,1.1-0.5c0.5,0,0.8,0.1,1.1,0.4
			s0.5,0.6,0.5,1.1c0,0.4-0.2,0.8-0.5,1.1c-0.3,0.3-0.7,0.5-1.1,0.5C387.9,24.3,387.5,24.2,387.2,23.9z M387.2,26.8h2.4v13h-2.4
			V26.8z"/>
		<path class="st0" d="M396.1,39.1c-1-0.6-1.8-1.4-2.4-2.4c-0.6-1-0.9-2.1-0.9-3.4s0.3-2.4,0.9-3.4c0.6-1,1.4-1.8,2.4-2.4
			c1-0.6,2.2-0.8,3.5-0.8s2.5,0.3,3.5,0.8c1,0.6,1.8,1.4,2.4,2.4c0.6,1,0.9,2.1,0.9,3.4s-0.3,2.4-0.9,3.4c-0.6,1-1.4,1.8-2.4,2.4
			c-1,0.6-2.2,0.9-3.5,0.9S397.2,39.7,396.1,39.1z M401.9,37.4c0.7-0.4,1.2-0.9,1.6-1.6s0.6-1.5,0.6-2.4s-0.2-1.7-0.6-2.4
			c-0.4-0.7-0.9-1.2-1.6-1.6c-0.7-0.4-1.4-0.6-2.2-0.6c-0.8,0-1.6,0.2-2.2,0.6c-0.7,0.4-1.2,0.9-1.6,1.6c-0.4,0.7-0.6,1.5-0.6,2.4
			s0.2,1.7,0.6,2.4c0.4,0.7,0.9,1.2,1.6,1.6c0.7,0.4,1.4,0.6,2.2,0.6C400.5,37.9,401.2,37.7,401.9,37.4z"/>
		<path class="st0" d="M420.5,28.1c1,1,1.5,2.4,1.5,4.2v7.5h-2.4v-7.2c0-1.3-0.3-2.2-0.9-2.8c-0.6-0.6-1.5-1-2.6-1
			c-1.3,0-2.3,0.4-3,1.1s-1.1,1.8-1.1,3.2v6.7h-2.4v-13h2.3v2c0.5-0.7,1.1-1.2,1.9-1.5c0.8-0.4,1.7-0.5,2.8-0.5
			C418.3,26.7,419.6,27.2,420.5,28.1z"/>
		<path class="st0" d="M427,39.6c-1-0.3-1.8-0.7-2.3-1.1l1-1.9c0.6,0.4,1.3,0.7,2.1,1c0.8,0.2,1.6,0.4,2.5,0.4
			c2.1,0,3.1-0.6,3.1-1.8c0-0.4-0.1-0.7-0.4-0.9c-0.3-0.2-0.6-0.4-1-0.5c-0.4-0.1-1-0.2-1.8-0.4c-1-0.2-1.9-0.4-2.6-0.6
			s-1.2-0.6-1.7-1.1c-0.5-0.5-0.7-1.2-0.7-2.1c0-1.2,0.5-2.1,1.5-2.8c1-0.7,2.3-1.1,4-1.1c0.9,0,1.7,0.1,2.6,0.3
			c0.9,0.2,1.6,0.5,2.1,0.9l-1,1.9c-1.1-0.7-2.3-1-3.8-1c-1,0-1.8,0.2-2.3,0.5s-0.8,0.8-0.8,1.3c0,0.4,0.1,0.8,0.4,1
			c0.3,0.2,0.7,0.4,1.1,0.5s1,0.2,1.8,0.4c1,0.2,1.9,0.4,2.5,0.6c0.6,0.2,1.2,0.6,1.7,1c0.5,0.5,0.7,1.2,0.7,2.1
			c0,1.2-0.5,2.1-1.5,2.8s-2.4,1-4.1,1C429,40,428,39.9,427,39.6z"/>
	</g>
	<g>
		<g>
			<path class="st0" d="M67.2,4.5c-3.9-3.9-9.6-5.4-14.9-3.9c0,0-19.4,5.1-19.5,5.1c-10.5,2.8-37.2,8.1-32.3,20
				c5.1,12.5,21.5,26.4,33.8,31.2c18.2,7.2,28-5.6,32-18.8c0.1-0.3,0.2-0.6,0.2-0.8l0-0.1l0-0.2c0.3-0.9,0.5-1.8,0.7-2.7l3.8-14.9
				C72.6,14,71.1,8.4,67.2,4.5z M59.1,16.1L54.3,35c-0.3,1.3-1.5,2.2-2.8,2.2c-1.3,0-2.5-1-2.7-2.4l-1.6-8c-0.1-0.5-0.4-1-0.8-1.4
				C46,25,45.5,24.7,45,24.6l-8-1.6c-0.6-0.1-1.1-0.4-1.5-0.8c-0.5-0.5-0.8-1.2-0.9-1.9c0-1.3,0.9-2.5,2.2-2.8l18.8-4.9
				c1-0.2,2,0,2.7,0.7c0.5,0.5,0.8,1.3,0.8,2C59.2,15.6,59.2,15.9,59.1,16.1z"/>
		</g>
		<g>
			<path class="st0" d="M100.3,18.8v11.7c0,3.4-2.7,6.1-6.1,6.1c-3.4,0-6.1-2.7-6.1-6.1V18.8h-6.9v11.7c0,7.2,5.9,13.1,13,13.1
				c7.2,0,13.1-5.9,13.1-13.1V18.8H100.3z M134.5,25.8c-0.6-1.4-1.5-2.8-2.7-4c-2.4-2.4-5.3-3.6-8.6-3.6c-2.1,0-4.1,0.5-5.8,1.6
				v-1.1h-6.8v34.8h6.8V41.1c1.8,1.2,3.8,1.8,6,1.8c3.3,0,6.2-1.2,8.5-3.6c2.3-2.4,3.5-5.3,3.5-8.7
				C135.4,28.9,135.1,27.3,134.5,25.8z M122.7,36.4c-3.2,0-5.8-2.6-5.8-5.8c0-3.2,2.6-5.8,5.8-5.8c3.2,0,5.8,2.6,5.8,5.8
				C128.5,33.8,125.9,36.4,122.7,36.4z M194.1,19.4c-1.5-0.9-3-1.3-4.9-1.3c-1.6,0-2.8,0.3-3.8,0.9c-0.4,0.2-0.9,0.6-1.4,1v-1.3
				h-7.1v24.2h7.1V31.3c0-1.6,0-3.7,1.4-5.2c0.9-0.9,1.9-1.1,3.1-1.1c0.4,0,1.4,0,2.6,0.8l0.7,0.4l2.9-6.5L194.1,19.4z M214,32.3
				c-0.4-0.8-1.1-1.5-1.9-2.1c-0.7-0.5-1.6-1-2.6-1.3c-0.8-0.3-1.8-0.6-3-0.8l0,0c-2-0.4-3.3-0.8-4-1c-0.8-0.3-0.8-0.6-0.8-0.8
				c0-0.3,0.1-0.7,0.8-1c0.7-0.3,1.6-0.5,2.5-0.5c1.1,0,2.1,0.2,3,0.5c0.9,0.4,1.7,0.8,2.4,1.3l0.6,0.4l3.6-5.3l-0.5-0.4
				c-0.9-0.7-2.1-1.3-3.6-1.9c-1.5-0.6-3.4-1-5.5-1c-1.6,0-3.1,0.2-4.3,0.6c-1.2,0.4-2.3,1-3.2,1.8c-0.9,0.8-1.6,1.6-2.1,2.6
				c-0.5,1-0.7,2-0.7,3.1c0,1.2,0.3,2.2,0.8,3.1c0.5,0.8,1.2,1.5,2.1,2.2c0.8,0.6,1.8,1,2.9,1.5c0.9,0.4,2,0.7,3.2,0.9
				c0.4,0.1,1,0.2,1.8,0.4c0.5,0.1,1,0.2,1.4,0.4c0.3,0.1,0.5,0.3,0.7,0.4l0,0c0.1,0.1,0.2,0.3,0.2,0.5c0,0.4-0.1,0.8-0.8,1.1
				c-0.8,0.3-1.6,0.5-2.5,0.5c-0.8,0-1.5-0.1-2.2-0.3c-0.7-0.2-1.3-0.4-1.8-0.7c-0.6-0.3-1.1-0.7-1.5-1c-0.4-0.3-0.8-0.7-1.2-1.1
				l-0.5-0.5l-4,5.2l0.4,0.4c0.5,0.5,1.1,1.1,1.9,1.6c0.7,0.5,1.6,1,2.5,1.4c1,0.4,2,0.7,3,1c1.1,0.3,2.3,0.4,3.5,0.4
				c1.4,0,2.7-0.2,3.9-0.5c1.3-0.4,2.4-0.9,3.3-1.5c1-0.7,1.8-1.6,2.4-2.6c0.6-1.1,0.9-2.2,0.9-3.5C214.7,34.2,214.5,33.2,214,32.3z
				 M172.6,25.7c-0.7-1.6-1.5-2.9-2.6-4c-1.1-1.1-2.4-1.9-3.9-2.6c-1.4-0.6-3-0.9-4.7-0.9c-1.7,0-3.4,0.3-4.8,1
				c-1.5,0.7-2.8,1.6-3.8,2.7c-1.1,1.1-1.9,2.5-2.5,4c-0.6,1.5-0.9,3.1-0.9,4.9c0,1.8,0.3,3.5,1,5c0.7,1.6,1.6,2.9,2.8,4.1
				c1.2,1.2,2.6,2.1,4.1,2.7c1.5,0.6,3.3,1,5.1,1c2.1,0,4-0.4,5.6-1.1c1.6-0.7,2.9-1.5,3.9-2.3l0.5-0.4l-3.7-5.5l-0.6,0.5
				c-0.8,0.8-1.8,1.3-2.8,1.6c-1,0.3-2,0.5-2.9,0.5c-0.9,0-1.6-0.1-2.3-0.4c-0.6-0.2-1.2-0.6-1.8-1c-0.5-0.4-0.9-0.8-1.2-1.3
				c-0.1-0.2-0.2-0.4-0.3-0.6h16.7l0-0.6c0-0.6,0.1-1,0.1-1.3v-0.9C173.5,28.9,173.2,27.2,172.6,25.7z M157.3,28.1
				c0.1-0.2,0.1-0.4,0.2-0.7c0.2-0.5,0.5-0.9,0.9-1.3c0.4-0.4,0.9-0.7,1.5-1c0.6-0.2,1.3-0.4,2.2-0.4c0.9,0,1.6,0.1,2.2,0.4
				c0.6,0.2,1.1,0.6,1.5,1c0.4,0.4,0.7,0.9,0.9,1.3c0.1,0.2,0.2,0.4,0.2,0.6H157.3z M138.8,5.4v37.5h7.1V5.4H138.8z"/>
		</g>
	</g>
	<g>
		<g>
			<line class="st1" x1="226" y1="5.1" x2="226" y2="53.5"/>
		</g>
		<g>
			<rect x="225.2" y="5.1" class="st2" width="1.5" height="48.4"/>
		</g>
	</g>
</g>
</svg>
